<svg preserveAspectRatio="none" width="100%" height="100%" overflow="visible" style="display: block;" viewBox="0 0 16 16" fill="none" xmlns="http://www.w3.org/2000/svg">
<g id="coffee">
<mask id="mask0_0_16" style="mask-type:alpha" maskUnits="userSpaceOnUse" x="0" y="0" width="16" height="16">
<rect id="Bounding box" width="16" height="16" fill="var(--fill-0, #D9D9D9)"/>
</mask>
<g mask="url(#mask0_0_16)">
<path id="coffee_2" d="M7.33333 12C6.03333 12 4.93056 11.5472 4.025 10.6417C3.11944 9.73611 2.66667 8.63333 2.66667 7.33333V3.33333C2.66667 2.96667 2.79722 2.65278 3.05833 2.39167C3.31944 2.13056 3.63333 2 4 2H12.3333C12.9778 2 13.5278 2.22778 13.9833 2.68333C14.4389 3.13889 14.6667 3.68889 14.6667 4.33333C14.6667 4.97778 14.4389 5.52778 13.9833 5.98333C13.5278 6.43889 12.9778 6.66667 12.3333 6.66667H12V7.33333C12 8.63333 11.5472 9.73611 10.6417 10.6417C9.73611 11.5472 8.63333 12 7.33333 12ZM4 5.33333H10.6667V3.33333H4V5.33333ZM7.33333 10.6667C8.25556 10.6667 9.04167 10.3417 9.69167 9.69167C10.3417 9.04167 10.6667 8.25556 10.6667 7.33333V6.66667H4V7.33333C4 8.25556 4.325 9.04167 4.975 9.69167C5.625 10.3417 6.41111 10.6667 7.33333 10.6667ZM12 5.33333H12.3333C12.6111 5.33333 12.8472 5.23611 13.0417 5.04167C13.2361 4.84722 13.3333 4.61111 13.3333 4.33333C13.3333 4.05556 13.2361 3.81944 13.0417 3.625C12.8472 3.43056 12.6111 3.33333 12.3333 3.33333H12V5.33333ZM3.33333 14C3.14444 14 2.98611 13.9361 2.85833 13.8083C2.73056 13.6806 2.66667 13.5222 2.66667 13.3333C2.66667 13.1444 2.73056 12.9861 2.85833 12.8583C2.98611 12.7306 3.14444 12.6667 3.33333 12.6667H12.6667C12.8556 12.6667 13.0139 12.7306 13.1417 12.8583C13.2694 12.9861 13.3333 13.1444 13.3333 13.3333C13.3333 13.5222 13.2694 13.6806 13.1417 13.8083C13.0139 13.9361 12.8556 14 12.6667 14H3.33333Z" fill="var(--fill-0, #404040)"/>
</g>
</g>
</svg>
