<svg preserveAspectRatio="none" width="100%" height="100%" overflow="visible" style="display: block;" viewBox="0 0 16 16" fill="none" xmlns="http://www.w3.org/2000/svg">
<g id="wifi">
<mask id="mask0_0_31" style="mask-type:alpha" maskUnits="userSpaceOnUse" x="0" y="0" width="16" height="16">
<rect id="Bounding box" width="16" height="16" fill="var(--fill-0, #D9D9D9)"/>
</mask>
<g mask="url(#mask0_0_31)">
<path id="wifi_2" d="M8 13.6C7.55556 13.6 7.17778 13.4444 6.86667 13.1333C6.55556 12.8222 6.4 12.4444 6.4 12C6.4 11.5556 6.55556 11.1778 6.86667 10.8667C7.17778 10.5556 7.55556 10.4 8 10.4C8.44444 10.4 8.82222 10.5556 9.13333 10.8667C9.44444 11.1778 9.6 11.5556 9.6 12C9.6 12.4444 9.44444 12.8222 9.13333 13.1333C8.82222 13.4444 8.44444 13.6 8 13.6ZM8 6.4C8.85556 6.4 9.66389 6.53333 10.425 6.8C11.1861 7.06667 11.8833 7.43333 12.5167 7.9C12.6944 8.03333 12.7917 8.21111 12.8083 8.43333C12.825 8.65556 12.7556 8.84444 12.6 9C12.4444 9.15556 12.2556 9.23889 12.0333 9.25C11.8111 9.26111 11.6056 9.20556 11.4167 9.08333C10.9278 8.73889 10.3944 8.47222 9.81667 8.28333C9.23889 8.09444 8.63333 8 8 8C7.36667 8 6.76111 8.09444 6.18333 8.28333C5.60556 8.47222 5.07222 8.73889 4.58333 9.08333C4.39444 9.20556 4.18889 9.26111 3.96667 9.25C3.74444 9.23889 3.55556 9.15556 3.4 9C3.24444 8.84444 3.175 8.65556 3.19167 8.43333C3.20833 8.21111 3.30556 8.03333 3.48333 7.9C4.11667 7.43333 4.81389 7.06667 5.575 6.8C6.33611 6.53333 7.14444 6.4 8 6.4ZM8 2.4C9.4 2.4 10.7222 2.63056 11.9667 3.09167C13.2111 3.55278 14.3389 4.2 15.35 5.03333C15.5278 5.18889 15.625 5.37778 15.6417 5.6C15.6583 5.82222 15.5889 6.01111 15.4333 6.16667C15.2667 6.33333 15.0667 6.41389 14.8333 6.40833C14.6 6.40278 14.3889 6.32222 14.2 6.16667C13.3333 5.48889 12.3778 4.95833 11.3333 4.575C10.2889 4.19167 9.17778 4 8 4C6.82222 4 5.71111 4.19167 4.66667 4.575C3.62222 4.95833 2.66667 5.48889 1.8 6.16667C1.61111 6.32222 1.4 6.40556 1.16667 6.41667C0.933333 6.42778 0.733333 6.35 0.566666 6.18333C0.411111 6.02778 0.341666 5.83611 0.358333 5.60833C0.375 5.38056 0.472222 5.18889 0.65 5.03333C1.66111 4.2 2.78889 3.55278 4.03333 3.09167C5.27778 2.63056 6.6 2.4 8 2.4Z" fill="var(--fill-0, #404040)"/>
</g>
</g>
</svg>
