<svg preserveAspectRatio="none" width="100%" height="100%" overflow="visible" style="display: block;" viewBox="0 0 20 20" fill="none" xmlns="http://www.w3.org/2000/svg">
<g id="Icon">
<path id="Vector" fill-rule="evenodd" clip-rule="evenodd" d="M14.9987 4.58398H4.9987C4.76858 4.58398 4.58203 4.77053 4.58203 5.00064V11.2291L7.25216 8.73689C7.50829 8.49789 7.90577 8.49789 8.16192 8.73689L10.8815 11.2752L12.7316 9.92964C12.9654 9.75964 13.2821 9.75964 13.5158 9.92964L15.4154 11.3112V5.00064C15.4154 4.77053 15.2288 4.58398 14.9987 4.58398ZM4.58203 15.0007V12.9389L7.70703 10.0222L10.3805 12.5174C10.614 12.7353 10.9691 12.7571 11.2275 12.5692L13.1237 11.1902L15.4154 12.8567V15.0007C15.4154 15.2307 15.2288 15.4173 14.9987 15.4173H4.9987C4.76858 15.4173 4.58203 15.2307 4.58203 15.0007ZM4.9987 3.33398C4.07822 3.33398 3.33203 4.08017 3.33203 5.00064V15.0007C3.33203 15.9212 4.07822 16.6673 4.9987 16.6673H14.9987C15.9192 16.6673 16.6654 15.9212 16.6654 15.0007V5.00064C16.6654 4.08017 15.9192 3.33398 14.9987 3.33398H4.9987ZM12.9154 8.33398C13.6057 8.33398 14.1654 7.77433 14.1654 7.08398C14.1654 6.39362 13.6057 5.83398 12.9154 5.83398C12.2251 5.83398 11.6654 6.39362 11.6654 7.08398C11.6654 7.77433 12.2251 8.33398 12.9154 8.33398Z" fill="var(--fill-0, white)"/>
</g>
</svg>
