<svg preserveAspectRatio="none" width="100%" height="100%" overflow="visible" style="display: block;" viewBox="0 0 86 14" fill="none" xmlns="http://www.w3.org/2000/svg">
<g id="star">
<path id="Star 25" d="M6.5393 1.09231C6.71121 0.684719 7.28879 0.68472 7.4607 1.09231L8.75062 4.15069C8.82279 4.3218 8.98385 4.43881 9.16889 4.45457L12.4762 4.73627C12.9169 4.77381 13.0954 5.32313 12.7609 5.61257L10.2508 7.78445C10.1104 7.90597 10.0489 8.0953 10.0911 8.27615L10.8452 11.5086C10.9457 11.9394 10.4784 12.2789 10.0997 12.0502L7.2585 10.3341C7.09954 10.2381 6.90046 10.2381 6.7415 10.3341L3.90026 12.0502C3.52161 12.2789 3.05433 11.9394 3.15483 11.5086L3.90893 8.27615C3.95112 8.0953 3.8896 7.90597 3.74917 7.78445L1.23909 5.61257C0.904569 5.32313 1.08305 4.77381 1.52382 4.73627L4.83111 4.45457C5.01615 4.43881 5.17721 4.3218 5.24938 4.15069L6.5393 1.09231Z" fill="var(--fill-0, #FBB03C)"/>
<path id="Star 26" d="M24.5393 1.09231C24.7112 0.684719 25.2888 0.68472 25.4607 1.09231L26.7506 4.15069C26.8228 4.3218 26.9839 4.43881 27.1689 4.45457L30.4762 4.73627C30.9169 4.77381 31.0954 5.32313 30.7609 5.61257L28.2508 7.78445C28.1104 7.90597 28.0489 8.0953 28.0911 8.27615L28.8452 11.5086C28.9457 11.9394 28.4784 12.2789 28.0997 12.0502L25.2585 10.3341C25.0995 10.2381 24.9005 10.2381 24.7415 10.3341L21.9003 12.0502C21.5216 12.2789 21.0543 11.9394 21.1548 11.5086L21.9089 8.27615C21.9511 8.0953 21.8896 7.90597 21.7492 7.78445L19.2391 5.61257C18.9046 5.32313 19.0831 4.77381 19.5238 4.73627L22.8311 4.45457C23.0162 4.43881 23.1772 4.3218 23.2494 4.15069L24.5393 1.09231Z" fill="var(--fill-0, #FBB03C)"/>
<path id="Star 27" d="M42.5393 1.09231C42.7112 0.684719 43.2888 0.68472 43.4607 1.09231L44.7506 4.15069C44.8228 4.3218 44.9839 4.43881 45.1689 4.45457L48.4762 4.73627C48.9169 4.77381 49.0954 5.32313 48.7609 5.61257L46.2508 7.78445C46.1104 7.90597 46.0489 8.0953 46.0911 8.27615L46.8452 11.5086C46.9457 11.9394 46.4784 12.2789 46.0997 12.0502L43.2585 10.3341C43.0995 10.2381 42.9005 10.2381 42.7415 10.3341L39.9003 12.0502C39.5216 12.2789 39.0543 11.9394 39.1548 11.5086L39.9089 8.27615C39.9511 8.0953 39.8896 7.90597 39.7492 7.78445L37.2391 5.61257C36.9046 5.32313 37.0831 4.77381 37.5238 4.73627L40.8311 4.45457C41.0162 4.43881 41.1772 4.3218 41.2494 4.15069L42.5393 1.09231Z" fill="var(--fill-0, #FBB03C)"/>
<path id="Star 28" d="M60.5393 1.09231C60.7112 0.684719 61.2888 0.68472 61.4607 1.09231L62.7506 4.15069C62.8228 4.3218 62.9839 4.43881 63.1689 4.45457L66.4762 4.73627C66.9169 4.77381 67.0954 5.32313 66.7609 5.61257L64.2508 7.78445C64.1104 7.90597 64.0489 8.0953 64.0911 8.27615L64.8452 11.5086C64.9457 11.9394 64.4784 12.2789 64.0997 12.0502L61.2585 10.3341C61.0995 10.2381 60.9005 10.2381 60.7415 10.3341L57.9003 12.0502C57.5216 12.2789 57.0543 11.9394 57.1548 11.5086L57.9089 8.27615C57.9511 8.0953 57.8896 7.90597 57.7492 7.78445L55.2391 5.61257C54.9046 5.32313 55.0831 4.77381 55.5238 4.73627L58.8311 4.45457C59.0162 4.43881 59.1772 4.3218 59.2494 4.15069L60.5393 1.09231Z" fill="var(--fill-0, #FBB03C)"/>
<path id="Star 29" d="M78.5393 1.09231C78.7112 0.684719 79.2888 0.68472 79.4607 1.09231L80.7506 4.15069C80.8228 4.3218 80.9839 4.43881 81.1689 4.45457L84.4762 4.73627C84.9169 4.77381 85.0954 5.32313 84.7609 5.61257L82.2508 7.78445C82.1104 7.90597 82.0489 8.0953 82.0911 8.27615L82.8452 11.5086C82.9457 11.9394 82.4784 12.2789 82.0997 12.0502L79.2585 10.3341C79.0995 10.2381 78.9005 10.2381 78.7415 10.3341L75.9003 12.0502C75.5216 12.2789 75.0543 11.9394 75.1548 11.5086L75.9089 8.27615C75.9511 8.0953 75.8896 7.90597 75.7492 7.78445L73.2391 5.61257C72.9046 5.32313 73.0831 4.77381 73.5238 4.73627L76.8311 4.45457C77.0162 4.43881 77.1772 4.3218 77.2494 4.15069L78.5393 1.09231Z" fill="var(--fill-0, #FBB03C)"/>
</g>
</svg>
