<svg width="201" height="38" viewBox="0 0 201 38" fill="none" xmlns="http://www.w3.org/2000/svg">
<g clip-path="url(#clip0_88_939)">
<path d="M1.78711 15.2042H16.7158C17.1932 15.2043 17.6236 15.4756 17.8018 15.9464H0.693359C0.884676 15.4945 1.30788 15.2042 1.78711 15.2042Z" stroke="white" stroke-width="1.11389"/>
<path d="M9.66266 2.69995C9.55811 2.8209 9.51676 2.95185 9.50055 3.01831C9.47921 3.10587 9.47193 3.18972 9.4693 3.24976C9.46655 3.31254 9.46839 3.36862 9.47028 3.40796C9.47087 3.42022 9.47158 3.43151 9.47223 3.44116V4.05444C9.47229 4.07162 9.47297 4.09631 9.47321 4.12573C9.4733 4.13728 9.47307 4.14982 9.47321 4.16284C9.41561 4.1631 9.35559 4.1663 9.29547 4.16577C9.22369 4.16514 9.15292 4.16263 9.08551 4.16089C9.08586 4.1303 9.08728 4.10187 9.08746 4.0769V3.2937C9.08729 3.28371 9.08713 3.26954 9.08649 3.25366C9.08523 3.22273 9.08221 3.17855 9.07672 3.12964C9.07153 3.08336 9.0624 3.01766 9.04352 2.94897C9.03301 2.91081 9.00109 2.80509 8.92145 2.69995H9.66266Z" stroke="white" stroke-width="1.11389"/>
<path d="M10.1556 5.98254C12.7865 6.36204 14.9625 8.54604 15.2122 11.4357H3.28937C3.52314 8.50973 5.5918 6.3361 8.36945 5.98254H10.1556Z" stroke="white" stroke-width="1.11389"/>
<path d="M30.001 2.35669C31.8566 2.35669 33.2158 2.81656 34.2979 3.70728L34.0225 3.98755C33.0056 3.11105 31.6728 2.58521 30.0303 2.58521C26.0369 2.58521 23.6807 5.71847 23.6807 9.16626C23.6808 12.6139 26.037 15.7473 30.0303 15.7473C31.5662 15.7473 33.0706 15.3231 34.1895 14.7073L34.4775 14.5481V8.97974H31.1055V8.78052H34.7764V14.717C33.3208 15.4848 31.5093 15.9182 30.001 15.9182C26.0976 15.918 23.209 13.0797 23.209 9.13696C23.2092 5.19447 26.0977 2.3569 30.001 2.35669Z" stroke="white" stroke-width="1.11389"/>
<path d="M39.4451 7.49573V12.0494C39.4451 13.1024 39.5872 14.0473 40.0847 14.7321C40.6141 15.4604 41.4511 15.776 42.5388 15.776C42.5891 15.776 42.6765 15.7712 42.7917 15.7584C42.5824 15.8054 42.3713 15.8326 42.1638 15.8326C41.084 15.8326 40.3802 15.5345 39.9402 15.066C39.4943 14.5912 39.2332 13.85 39.2332 12.7916V7.49573H39.4451ZM46.1316 7.49573V14.1334C46.1316 14.4946 46.1616 15.073 46.1892 15.6041H45.8777C45.8634 15.3035 45.8621 14.9923 45.8621 14.6764V14.1188H45.3435C45.6925 13.5205 45.9197 12.7249 45.9197 11.6783V7.49573H46.1316Z" stroke="white" stroke-width="1.11389"/>
<path d="M53.9187 7.23877C55.1875 7.25215 56.153 7.71621 56.8044 8.42529C57.4614 9.14061 57.8318 10.1427 57.8318 11.2788V11.3237L57.4763 11.3247V10.8501C57.4762 9.85857 57.1539 8.96657 56.5154 8.3208C55.8752 7.67355 54.9672 7.32473 53.8933 7.32471C52.8893 7.32471 51.9444 7.74368 51.2517 8.37646C50.5609 9.00751 50.08 9.89059 50.0798 10.8501V11.3511L49.9968 11.3521L50.0535 11.9585C50.2494 14.0608 51.8669 15.7757 54.0369 15.7759C55.3493 15.7759 56.4394 15.173 57.1248 14.4146L57.2429 14.5112C56.3289 15.4429 55.2408 15.8325 54.0369 15.8325C51.5818 15.8323 49.781 14.0296 49.781 11.5356C49.781 9.06007 51.5912 7.24049 53.9187 7.23877Z" stroke="white" stroke-width="1.11389"/>
<path d="M63.7205 7.23877C64.7132 7.23877 65.551 7.5301 66.075 8.18506L65.825 8.35889C65.3237 7.74705 64.6029 7.35303 63.6628 7.35303C63.134 7.35303 62.5431 7.4651 62.0642 7.75342C61.5639 8.05471 61.1747 8.56234 61.1746 9.27979C61.1746 9.56026 61.2251 9.82804 61.3455 10.0737C61.4667 10.3212 61.6447 10.517 61.8572 10.6724C62.2594 10.9664 62.8138 11.1349 63.4197 11.2778L64.7449 11.5923L64.7537 11.5942C65.872 11.8405 66.5935 12.6111 66.5935 13.563C66.5934 14.3634 66.2426 14.9024 65.7048 15.2632C65.1426 15.6403 64.3531 15.8325 63.5183 15.8325C62.4243 15.8324 61.4619 15.5153 60.7449 14.7173L60.949 14.5767C61.5697 15.2844 62.4238 15.7465 63.5183 15.7466C64.1243 15.7466 64.7804 15.6111 65.3044 15.2905C65.8459 14.9594 66.2664 14.411 66.2664 13.6479C66.2662 12.9854 65.9546 12.5178 65.5066 12.2036C65.0973 11.9166 64.5698 11.7544 64.0964 11.6265L64.0847 11.6226L64.073 11.6206L62.8132 11.3354C62.4945 11.2491 61.9926 11.1053 61.5691 10.8081C61.1615 10.5221 60.8475 10.1136 60.8474 9.45166C60.8474 8.68646 61.1763 8.15916 61.6785 7.8042C62.2016 7.43446 62.9375 7.23877 63.7205 7.23877Z" stroke="white" stroke-width="1.11389"/>
<path d="M70.8301 4.92615V7.52478H73.5107V7.58142H70.8008V13.5629C70.8008 14.2997 70.9444 14.8956 71.335 15.2943C71.7327 15.7002 72.2632 15.7758 72.7129 15.7758C72.9939 15.7757 73.2767 15.7321 73.5469 15.6615L73.5488 15.6976C73.2032 15.8022 72.7929 15.8607 72.3672 15.8607C71.9276 15.8607 71.4958 15.7649 71.1836 15.515C70.8949 15.2838 70.6182 14.8481 70.6182 13.9623V7.58142H68.6582V7.52478H70.6182V4.92615H70.8301Z" stroke="white" stroke-width="1.11389"/>
<path d="M86.1431 2.75635C87.5011 2.75638 88.5236 3.05079 89.1938 3.56592C89.8411 4.06354 90.2261 4.81793 90.2261 5.91162C90.226 6.75375 89.9472 7.45873 89.4468 7.9751C88.9443 8.49337 88.1774 8.86301 87.1323 8.95361L86.2339 9.03174L86.7056 9.79932L90.2495 15.5757H89.8022L86.1021 9.36572L85.9409 9.09424H82.6724L82.6753 9.65381L82.7017 15.604H82.3765V2.75635H86.1431ZM82.7036 8.95166H85.7974C87.1489 8.9516 88.1544 8.66019 88.8296 8.09912C89.5217 7.52396 89.7837 6.7361 89.7837 5.93994C89.7837 5.14306 89.5211 4.36064 88.8267 3.79248C88.1511 3.23999 87.1459 2.9566 85.7974 2.95654H82.7036V8.95166Z" stroke="white" stroke-width="1.11389"/>
<path d="M97.379 7.23877C98.6478 7.25215 99.6134 7.71621 100.265 8.42529C100.922 9.14061 101.292 10.1427 101.292 11.2788V11.3237L100.937 11.3247V10.8501C100.937 9.85857 100.614 8.96657 99.9757 8.3208C99.3355 7.67355 98.4275 7.32473 97.3536 7.32471C96.3496 7.32471 95.4048 7.74368 94.712 8.37646C94.0213 9.00751 93.5403 9.89059 93.5402 10.8501V11.3511L93.4572 11.3521L93.5138 11.9585C93.7097 14.0608 95.3273 15.7757 97.4972 15.7759C98.8096 15.7759 99.8997 15.173 100.585 14.4146L100.703 14.5112C99.7892 15.4428 98.7011 15.8325 97.4972 15.8325C95.0421 15.8323 93.2413 14.0296 93.2413 11.5356C93.2413 9.06006 95.0516 7.24049 97.379 7.23877Z" stroke="white" stroke-width="1.11389"/>
<path d="M107.181 7.23877C108.174 7.23877 109.012 7.53011 109.536 8.18506L109.286 8.35889C108.784 7.74705 108.064 7.35303 107.124 7.35303C106.595 7.35303 106.004 7.4651 105.525 7.75342C105.025 8.05471 104.635 8.56234 104.635 9.27979C104.635 9.56026 104.686 9.82804 104.806 10.0737C104.927 10.3212 105.105 10.517 105.318 10.6724C105.72 10.9664 106.274 11.1349 106.88 11.2778L108.206 11.5923L108.214 11.5942C109.333 11.8405 110.054 12.6111 110.054 13.563C110.054 14.3634 109.703 14.9024 109.166 15.2632C108.603 15.6403 107.814 15.8325 106.979 15.8325C105.885 15.8324 104.923 15.5153 104.206 14.7173L104.41 14.5767C105.03 15.2844 105.885 15.7465 106.979 15.7466C107.585 15.7466 108.241 15.6111 108.765 15.2905C109.307 14.9593 109.727 14.411 109.727 13.6479C109.727 12.9854 109.415 12.5178 108.967 12.2036C108.558 11.9166 108.031 11.7544 107.557 11.6265L107.545 11.6226L107.534 11.6206L106.274 11.3354C105.955 11.2491 105.453 11.1053 105.03 10.8081C104.622 10.5221 104.308 10.1136 104.308 9.45166C104.308 8.68646 104.637 8.15916 105.139 7.8042C105.662 7.43446 106.398 7.23877 107.181 7.23877Z" stroke="white" stroke-width="1.11389"/>
<path d="M116.891 7.23877C118.159 7.25215 119.125 7.71621 119.776 8.42529C120.433 9.14061 120.804 10.1427 120.804 11.2788V11.3237L120.476 11.3247V10.8501C120.476 9.85857 120.155 8.96657 119.516 8.3208C118.876 7.67338 117.967 7.32471 116.893 7.32471C115.89 7.32481 114.944 7.74372 114.252 8.37646C113.561 9.00749 113.08 9.89068 113.08 10.8501V11.3511L112.969 11.3521L113.025 11.9585C113.221 14.0608 114.839 15.7757 117.009 15.7759C118.321 15.7759 119.411 15.173 120.097 14.4146L120.215 14.5112C119.301 15.4429 118.213 15.8325 117.009 15.8325C114.554 15.8323 112.753 14.0296 112.753 11.5356C112.753 9.06007 114.563 7.24049 116.891 7.23877Z" stroke="white" stroke-width="1.11389"/>
<path d="M124.521 7.49585V9.20874H125.107C124.789 9.78621 124.637 10.4245 124.637 10.9929V15.6326H124.425V9.823C124.425 9.1114 124.402 8.48263 124.36 7.49585H124.521ZM128.104 7.26733C128.221 7.26734 128.326 7.27172 128.424 7.27808L128.384 7.47632C128.286 7.47057 128.184 7.46753 128.075 7.46753C127.28 7.46757 126.623 7.70262 126.104 8.07397C126.528 7.61046 127.183 7.26733 128.104 7.26733Z" stroke="white" stroke-width="1.11389"/>
<path d="M130.372 7.49573L133.204 14.9039L133.341 15.2614H134.137L134.273 14.9039L137.105 7.49573H137.388L134.044 15.6041H133.32L130.001 7.49573H130.372Z" stroke="white" stroke-width="1.11389"/>
<path d="M142.198 11.3867C141.763 11.525 141.332 11.7275 140.99 12.0322C140.581 12.397 140.315 12.8973 140.315 13.5342C140.315 14.351 140.705 14.9422 141.266 15.3047C141.799 15.6491 142.463 15.7754 143.062 15.7754C143.445 15.7754 143.799 15.726 144.124 15.6348C143.723 15.8025 143.245 15.8896 142.659 15.8896C141.933 15.8896 141.259 15.6866 140.781 15.3223C140.319 14.9697 140.017 14.4521 140.017 13.7344C140.017 13.1053 140.201 12.6601 140.479 12.3281C140.767 11.9863 141.187 11.7254 141.714 11.5342C141.87 11.4777 142.032 11.4299 142.198 11.3867ZM146.443 10.2793C146.443 9.39794 146.229 8.63577 145.688 8.09961C145.147 7.5646 144.381 7.3526 143.495 7.35254C142.454 7.35254 141.521 7.65515 140.71 8.23145L140.628 8.13867C141.359 7.61405 142.4 7.2959 143.783 7.2959C144.592 7.29595 145.301 7.52516 145.8 7.95605C146.286 8.37638 146.627 9.03592 146.627 10.0225V14.1338C146.627 14.6206 146.667 15.1676 146.719 15.6328H146.574C146.544 15.3331 146.53 15.0119 146.53 14.7051V14.1475H145.996C146.302 13.5821 146.443 12.9237 146.443 12.249V10.2793Z" stroke="white" stroke-width="1.11389"/>
<path d="M151.958 4.38367V7.09656H154.753V7.20984H151.958V13.4481C151.958 14.2076 152.099 14.822 152.499 15.2303C152.907 15.6462 153.457 15.7186 153.927 15.7186C154.224 15.7186 154.527 15.6746 154.818 15.5966L154.821 15.6669C154.466 15.7717 154.027 15.8319 153.552 15.8319C153.101 15.8319 152.638 15.7308 152.299 15.4608C151.984 15.2097 151.689 14.7435 151.689 13.8192V7.20984H149.642V7.09656H151.689V4.38367H151.958Z" stroke="white" stroke-width="1.11389"/>
<path d="M158.299 7.09619V15.604H158.029V7.09619H158.299ZM158.164 2.38525C158.412 2.3853 158.615 2.57131 158.615 2.82764C158.615 3.08408 158.412 3.26997 158.164 3.27002C157.935 3.27002 157.712 3.07454 157.712 2.82764C157.712 2.58953 157.927 2.38525 158.164 2.38525Z" stroke="white" stroke-width="1.11389"/>
<path d="M166.81 6.86768C169.533 6.86788 171.411 8.79383 171.411 11.3647C171.411 13.9355 169.533 15.8606 166.81 15.8608C164.113 15.8608 162.207 13.9336 162.207 11.3647C162.207 8.76721 164.084 6.86768 166.81 6.86768ZM166.81 6.98193C165.541 6.98193 164.474 7.45272 163.728 8.25928C162.986 9.06122 162.592 10.1596 162.592 11.3647C162.592 12.5698 162.986 13.6674 163.728 14.4692C164.474 15.2759 165.541 15.7476 166.81 15.7476C168.078 15.7475 169.144 15.2758 169.891 14.4692C170.633 13.6674 171.027 12.5698 171.027 11.3647C171.027 10.1596 170.633 9.06122 169.891 8.25928C169.144 7.45285 168.078 6.98204 166.81 6.98193Z" stroke="white" stroke-width="1.11389"/>
<path d="M175.257 7.10571C175.272 7.42129 175.273 7.74367 175.273 8.0813V8.63794H175.913C175.529 9.2682 175.273 10.1169 175.273 11.2502V15.6321H175.004V8.68091C175.004 8.28603 174.968 7.67923 174.928 7.11255L175.257 7.10571ZM179.116 6.83911C180.254 6.83913 181.002 7.15229 181.47 7.64966C181.944 8.15297 182.219 8.93602 182.219 10.051V15.6038H181.95V10.8508C181.95 9.75382 181.8 8.77436 181.29 8.06567C180.748 7.31319 179.891 6.98173 178.77 6.98169C178.621 6.98169 178.126 7.01099 177.549 7.24634C178.028 6.99179 178.577 6.83911 179.116 6.83911Z" stroke="white" stroke-width="1.11389"/>
<path d="M189.145 6.81055C190.197 6.81063 191.086 7.12861 191.622 7.81543L191.31 8.03613C190.798 7.39595 190.046 6.98145 189.058 6.98145C188.518 6.98145 187.906 7.09307 187.409 7.3877C186.888 7.69602 186.484 8.21858 186.484 8.96582C186.484 9.25894 186.535 9.53761 186.659 9.79199C186.784 10.0488 186.969 10.2505 187.191 10.4102C187.505 10.6364 187.909 10.7876 188.358 10.9092L188.821 11.0225L190.192 11.3623L190.201 11.3643C191.382 11.6381 192.132 12.439 192.132 13.4482C192.132 14.2914 191.761 14.8675 191.192 15.2539C190.6 15.6557 189.775 15.8603 188.915 15.8604C187.765 15.8604 186.743 15.5194 185.972 14.6611L186.222 14.4922C186.862 15.235 187.771 15.7188 188.915 15.7188C189.545 15.7187 190.222 15.5844 190.763 15.2559C191.325 14.9145 191.748 14.3496 191.748 13.5625C191.747 12.8757 191.433 12.3911 190.964 12.0664C190.538 11.771 189.985 11.6091 189.484 11.4814L189.475 11.4795L188.149 11.165C187.823 11.0805 187.298 10.9286 186.856 10.6143C186.431 10.3122 186.099 9.87491 186.099 9.16602C186.099 8.35538 186.444 7.79282 186.975 7.41406C187.526 7.02064 188.305 6.81055 189.145 6.81055Z" stroke="white" stroke-width="1.11389"/>
</g>
<path d="M0.232803 32.9589L4.04342 24.3207H4.90111L8.71172 32.9589H7.67024L6.60425 30.4961L7.09436 30.7534H1.82566L2.32803 30.4961L1.27429 32.9589H0.232803ZM4.46001 25.4969L2.48731 30.1407L2.19325 29.9079H6.72677L6.45721 30.1407L4.48452 25.4969H4.46001ZM10.6373 32.9589V27.004H11.6052V28.3273H11.4705C11.642 27.8535 11.9197 27.4982 12.3037 27.2613C12.6957 27.0163 13.145 26.8937 13.6515 26.8937C14.1252 26.8937 14.5173 26.9795 14.8277 27.151C15.1463 27.3144 15.3832 27.5717 15.5384 27.923C15.6936 28.2742 15.7712 28.7153 15.7712 29.2463V32.9589H14.7787V29.3075C14.7787 28.94 14.7297 28.6377 14.6317 28.4008C14.5418 28.1639 14.3948 27.9883 14.1906 27.874C13.9945 27.7596 13.7372 27.7024 13.4187 27.7024C13.0592 27.7024 12.7448 27.78 12.4752 27.9352C12.2056 28.0904 11.9973 28.3069 11.8503 28.5846C11.7033 28.8624 11.6297 29.1891 11.6297 29.5648V32.9589H10.6373ZM22.1851 25.5214V24.4064H23.4104V25.5214H22.1851ZM22.3077 32.9589V27.004H23.3001V32.9589H22.3077ZM25.9352 32.9589V27.004H26.9032V28.3273H26.7684C26.9399 27.8535 27.2176 27.4982 27.6016 27.2613C27.9937 27.0163 28.4429 26.8937 28.9494 26.8937C29.4231 26.8937 29.8152 26.9795 30.1256 27.151C30.4442 27.3144 30.6811 27.5717 30.8363 27.923C30.9915 28.2742 31.0691 28.7153 31.0691 29.2463V32.9589H30.0766V29.3075C30.0766 28.94 30.0276 28.6377 29.9296 28.4008C29.8397 28.1639 29.6927 27.9883 29.4885 27.874C29.2924 27.7596 29.0351 27.7024 28.7166 27.7024C28.3572 27.7024 28.0427 27.78 27.7731 27.9352C27.5035 28.0904 27.2952 28.3069 27.1482 28.5846C27.0012 28.8624 26.9277 29.1891 26.9277 29.5648V32.9589H25.9352ZM35.9457 33.0691C35.4147 33.0691 34.9491 32.9425 34.5488 32.6893C34.1567 32.4361 33.8504 32.0807 33.6299 31.6233C33.4175 31.1577 33.3113 30.6104 33.3113 29.9814C33.3113 29.3443 33.4175 28.797 33.6299 28.3396C33.8504 27.874 34.1567 27.5186 34.5488 27.2736C34.9491 27.0203 35.4147 26.8937 35.9457 26.8937C36.4848 26.8937 36.9463 27.0285 37.3302 27.2981C37.7141 27.5676 37.9714 27.9311 38.1021 28.3886H37.9674V24.3207H38.9598V32.9589H37.9919V31.5375H38.1144C37.9837 32.0031 37.7223 32.3748 37.3302 32.6525C36.9463 32.9303 36.4848 33.0691 35.9457 33.0691ZM36.1539 32.2727C36.7176 32.2727 37.1628 32.0767 37.4895 31.6846C37.8244 31.2843 37.9919 30.7166 37.9919 29.9814C37.9919 29.2381 37.8244 28.6704 37.4895 28.2783C37.1628 27.8862 36.7176 27.6902 36.1539 27.6902C35.5985 27.6902 35.1533 27.8862 34.8184 28.2783C34.4835 28.6704 34.316 29.2381 34.316 29.9814C34.316 30.7166 34.4835 31.2843 34.8184 31.6846C35.1533 32.0767 35.5985 32.2727 36.1539 32.2727ZM44.2854 33.0691C43.6565 33.0691 43.1133 32.9466 42.6558 32.7016C42.2065 32.4483 41.8553 32.093 41.6021 31.6356C41.357 31.1781 41.2345 30.6308 41.2345 29.9937C41.2345 29.3729 41.357 28.8338 41.6021 28.3763C41.8471 27.9107 42.182 27.5472 42.6068 27.2858C43.0397 27.0244 43.538 26.8937 44.1016 26.8937C44.6408 26.8937 45.1023 27.0122 45.4862 27.2491C45.8701 27.486 46.1642 27.8209 46.3684 28.2538C46.5808 28.6867 46.687 29.2054 46.687 29.8099V30.1897H41.9942V29.5403H46.0253L45.8293 29.6996C45.8293 29.0461 45.6823 28.5397 45.3882 28.1803C45.1023 27.8127 44.6816 27.6289 44.1261 27.6289C43.7096 27.6289 43.3542 27.7269 43.0602 27.923C42.7743 28.1108 42.5578 28.3763 42.4108 28.7194C42.2637 29.0543 42.1902 29.4464 42.1902 29.8957V29.9692C42.1902 30.4675 42.2678 30.8881 42.423 31.2312C42.5864 31.5743 42.8274 31.8357 43.1459 32.0154C43.4645 32.1869 43.8443 32.2727 44.2854 32.2727C44.6367 32.2727 44.9757 32.2196 45.3024 32.1134C45.6373 31.9991 45.9518 31.8153 46.2459 31.562L46.589 32.2605C46.3194 32.5055 45.9763 32.7016 45.5597 32.8486C45.1431 32.9956 44.7184 33.0691 44.2854 33.0691ZM48.9031 35.1644V27.004H49.871V28.4131H49.7485C49.8792 27.9475 50.1365 27.5799 50.5204 27.3103C50.9125 27.0326 51.3781 26.8937 51.9172 26.8937C52.4482 26.8937 52.9097 27.0203 53.3018 27.2736C53.7021 27.5186 54.0084 27.874 54.2208 28.3396C54.4413 28.797 54.5516 29.3443 54.5516 29.9814C54.5516 30.6104 54.4413 31.1577 54.2208 31.6233C54.0084 32.0807 53.7061 32.4361 53.3141 32.6893C52.922 32.9425 52.4564 33.0691 51.9172 33.0691C51.3781 33.0691 50.9166 32.9344 50.5327 32.6648C50.1487 32.3871 49.8874 32.0195 49.7485 31.562H49.8955V35.1644H48.9031ZM51.7089 32.2727C52.2726 32.2727 52.7177 32.0767 53.0445 31.6846C53.3794 31.2843 53.5469 30.7166 53.5469 29.9814C53.5469 29.2381 53.3794 28.6704 53.0445 28.2783C52.7177 27.8862 52.2726 27.6902 51.7089 27.6902C51.1535 27.6902 50.7083 27.8862 50.3734 28.2783C50.0385 28.6704 49.871 29.2381 49.871 29.9814C49.871 30.7166 50.0385 31.2843 50.3734 31.6846C50.7083 32.0767 51.1535 32.2727 51.7089 32.2727ZM59.5096 33.0691C58.8806 33.0691 58.3374 32.9466 57.88 32.7016C57.4307 32.4483 57.0795 32.093 56.8262 31.6356C56.5812 31.1781 56.4587 30.6308 56.4587 29.9937C56.4587 29.3729 56.5812 28.8338 56.8262 28.3763C57.0713 27.9107 57.4062 27.5472 57.831 27.2858C58.2639 27.0244 58.7622 26.8937 59.3258 26.8937C59.8649 26.8937 60.3264 27.0122 60.7104 27.2491C61.0943 27.486 61.3884 27.8209 61.5926 28.2538C61.805 28.6867 61.9111 29.2054 61.9111 29.8099V30.1897H57.2183V29.5403H61.2495L61.0534 29.6996C61.0534 29.0461 60.9064 28.5397 60.6123 28.1803C60.3264 27.8127 59.9058 27.6289 59.3503 27.6289C58.9337 27.6289 58.5784 27.7269 58.2843 27.923C57.9984 28.1108 57.782 28.3763 57.6349 28.7194C57.4879 29.0543 57.4144 29.4464 57.4144 29.8957V29.9692C57.4144 30.4675 57.492 30.8881 57.6472 31.2312C57.8105 31.5743 58.0515 31.8357 58.3701 32.0154C58.6887 32.1869 59.0685 32.2727 59.5096 32.2727C59.8608 32.2727 60.1998 32.2196 60.5266 32.1134C60.8615 31.9991 61.176 31.8153 61.47 31.562L61.8131 32.2605C61.5436 32.5055 61.2005 32.7016 60.7839 32.8486C60.3673 32.9956 59.9425 33.0691 59.5096 33.0691ZM64.1272 32.9589V27.004H65.0952V28.3273H64.9604C65.1319 27.8535 65.4097 27.4982 65.7936 27.2613C66.1857 27.0163 66.6349 26.8937 67.1414 26.8937C67.6152 26.8937 68.0073 26.9795 68.3177 27.151C68.6362 27.3144 68.8731 27.5717 69.0283 27.923C69.1835 28.2742 69.2611 28.7153 69.2611 29.2463V32.9589H68.2687V29.3075C68.2687 28.94 68.2196 28.6377 68.1216 28.4008C68.0318 28.1639 67.8847 27.9883 67.6805 27.874C67.4845 27.7596 67.2272 27.7024 66.9086 27.7024C66.5492 27.7024 66.2347 27.78 65.9651 27.9352C65.6956 28.0904 65.4873 28.3069 65.3402 28.5846C65.1932 28.8624 65.1197 29.1891 65.1197 29.5648V32.9589H64.1272ZM74.1377 33.0691C73.6067 33.0691 73.1411 32.9425 72.7409 32.6893C72.3488 32.4361 72.0425 32.0807 71.8219 31.6233C71.6095 31.1577 71.5033 30.6104 71.5033 29.9814C71.5033 29.3443 71.6095 28.797 71.8219 28.3396C72.0425 27.874 72.3488 27.5186 72.7409 27.2736C73.1411 27.0203 73.6067 26.8937 74.1377 26.8937C74.6768 26.8937 75.1383 27.0285 75.5222 27.2981C75.9062 27.5676 76.1635 27.9311 76.2942 28.3886H76.1594V24.3207H77.1519V32.9589H76.1839V31.5375H76.3064C76.1757 32.0031 75.9143 32.3748 75.5222 32.6525C75.1383 32.9303 74.6768 33.0691 74.1377 33.0691ZM74.346 32.2727C74.9096 32.2727 75.3548 32.0767 75.6815 31.6846C76.0164 31.2843 76.1839 30.7166 76.1839 29.9814C76.1839 29.2381 76.0164 28.6704 75.6815 28.2783C75.3548 27.8862 74.9096 27.6902 74.346 27.6902C73.7905 27.6902 73.3453 27.8862 73.0104 28.2783C72.6755 28.6704 72.5081 29.2381 72.5081 29.9814C72.5081 30.7166 72.6755 31.2843 73.0104 31.6846C73.3453 32.0767 73.7905 32.2727 74.346 32.2727ZM82.4775 33.0691C81.8485 33.0691 81.3053 32.9466 80.8478 32.7016C80.3986 32.4483 80.0473 32.093 79.7941 31.6356C79.549 31.1781 79.4265 30.6308 79.4265 29.9937C79.4265 29.3729 79.549 28.8338 79.7941 28.3763C80.0392 27.9107 80.3741 27.5472 80.7988 27.2858C81.2318 27.0244 81.73 26.8937 82.2937 26.8937C82.8328 26.8937 83.2943 27.0122 83.6782 27.2491C84.0622 27.486 84.3562 27.8209 84.5604 28.2538C84.7728 28.6867 84.879 29.2054 84.879 29.8099V30.1897H80.1862V29.5403H84.2174L84.0213 29.6996C84.0213 29.0461 83.8743 28.5397 83.5802 28.1803C83.2943 27.8127 82.8736 27.6289 82.3182 27.6289C81.9016 27.6289 81.5463 27.7269 81.2522 27.923C80.9663 28.1108 80.7498 28.3763 80.6028 28.7194C80.4558 29.0543 80.3822 29.4464 80.3822 29.8957V29.9692C80.3822 30.4675 80.4598 30.8881 80.615 31.2312C80.7784 31.5743 81.0194 31.8357 81.338 32.0154C81.6565 32.1869 82.0364 32.2727 82.4775 32.2727C82.8287 32.2727 83.1677 32.2196 83.4944 32.1134C83.8294 31.9991 84.1438 31.8153 84.4379 31.562L84.781 32.2605C84.5114 32.5055 84.1683 32.7016 83.7518 32.8486C83.3352 32.9956 82.9104 33.0691 82.4775 33.0691ZM87.0951 32.9589V27.004H88.0631V28.3273H87.9283C88.0998 27.8535 88.3775 27.4982 88.7615 27.2613C89.1535 27.0163 89.6028 26.8937 90.1093 26.8937C90.583 26.8937 90.9751 26.9795 91.2855 27.151C91.6041 27.3144 91.841 27.5717 91.9962 27.923C92.1514 28.2742 92.229 28.7153 92.229 29.2463V32.9589H91.2365V29.3075C91.2365 28.94 91.1875 28.6377 91.0895 28.4008C90.9996 28.1639 90.8526 27.9883 90.6484 27.874C90.4523 27.7596 90.195 27.7024 89.8765 27.7024C89.517 27.7024 89.2026 27.78 88.933 27.9352C88.6634 28.0904 88.4551 28.3069 88.3081 28.5846C88.1611 28.8624 88.0876 29.1891 88.0876 29.5648V32.9589H87.0951ZM97.2281 33.0691C96.5256 33.0691 95.9987 32.8813 95.6475 32.5055C95.2962 32.1298 95.1206 31.5947 95.1206 30.9004V27.7759H93.9566V27.004H95.1206V25.1783H96.1131V27.004H98V27.7759H96.1131V30.8024C96.1131 31.268 96.2111 31.6233 96.4071 31.8684C96.6032 32.1053 96.9218 32.2237 97.3629 32.2237C97.4935 32.2237 97.6242 32.2074 97.7549 32.1747C97.8856 32.142 98.0041 32.1093 98.1103 32.0767L98.2818 32.8363C98.1756 32.8935 98.0204 32.9466 97.8162 32.9956C97.612 33.0446 97.4159 33.0691 97.2281 33.0691ZM106.218 33.0691C105.516 33.0691 104.989 32.8813 104.638 32.5055C104.286 32.1298 104.111 31.5947 104.111 30.9004V27.7759H102.947V27.004H104.111V25.1783H105.103V27.004H106.99V27.7759H105.103V30.8024C105.103 31.268 105.201 31.6233 105.397 31.8684C105.593 32.1053 105.912 32.2237 106.353 32.2237C106.484 32.2237 106.614 32.2074 106.745 32.1747C106.876 32.142 106.994 32.1093 107.1 32.0767L107.272 32.8363C107.166 32.8935 107.011 32.9466 106.806 32.9956C106.602 33.0446 106.406 33.0691 106.218 33.0691ZM108.892 32.9589V27.004H109.86V28.4131H109.738C109.877 27.9311 110.118 27.5676 110.461 27.3226C110.804 27.0694 111.257 26.9223 111.821 26.8815L112.176 26.8447L112.25 27.7024L111.625 27.7759C111.069 27.8249 110.64 28.0047 110.338 28.3151C110.044 28.6173 109.897 29.0339 109.897 29.5648V32.9589H108.892ZM115.878 33.0691C115.47 33.0691 115.102 32.9915 114.775 32.8363C114.457 32.673 114.204 32.4524 114.016 32.1747C113.828 31.897 113.734 31.5866 113.734 31.2435C113.734 30.8024 113.844 30.4552 114.065 30.202C114.294 29.9488 114.665 29.7691 115.18 29.6629C115.703 29.5567 116.413 29.5036 117.312 29.5036H117.863V30.153H117.324C116.826 30.153 116.409 30.1693 116.074 30.202C115.739 30.2347 115.474 30.2918 115.278 30.3735C115.082 30.4552 114.943 30.5614 114.861 30.6921C114.78 30.8228 114.739 30.9862 114.739 31.1822C114.739 31.5171 114.853 31.7908 115.082 32.0031C115.319 32.2155 115.637 32.3217 116.038 32.3217C116.364 32.3217 116.65 32.2441 116.895 32.0889C117.148 31.9337 117.344 31.7213 117.483 31.4518C117.63 31.1822 117.704 30.8718 117.704 30.5206V29.1237C117.704 28.6173 117.602 28.2538 117.398 28.0332C117.193 27.8045 116.858 27.6902 116.393 27.6902C116.033 27.6902 115.686 27.7433 115.351 27.8495C115.016 27.9475 114.673 28.1108 114.322 28.3396L113.979 27.6167C114.191 27.4696 114.432 27.343 114.702 27.2368C114.972 27.1225 115.253 27.0367 115.547 26.9795C115.841 26.9223 116.123 26.8937 116.393 26.8937C116.907 26.8937 117.332 26.9795 117.667 27.151C118.002 27.3144 118.251 27.5676 118.415 27.9107C118.578 28.2456 118.66 28.6786 118.66 29.2095V32.9589H117.728V31.5743H117.839C117.773 31.8847 117.647 32.1502 117.459 32.3707C117.279 32.5913 117.054 32.7628 116.785 32.8853C116.515 33.0079 116.213 33.0691 115.878 33.0691ZM122.973 32.9589L120.412 27.004H121.49L123.622 32.2237H123.291L125.46 27.004H126.477L123.904 32.9589H122.973ZM130.906 33.0691C130.277 33.0691 129.734 32.9466 129.276 32.7016C128.827 32.4483 128.476 32.093 128.223 31.6356C127.978 31.1781 127.855 30.6308 127.855 29.9937C127.855 29.3729 127.978 28.8338 128.223 28.3763C128.468 27.9107 128.803 27.5472 129.227 27.2858C129.66 27.0244 130.159 26.8937 130.722 26.8937C131.261 26.8937 131.723 27.0122 132.107 27.2491C132.491 27.486 132.785 27.8209 132.989 28.2538C133.201 28.6867 133.307 29.2054 133.307 29.8099V30.1897H128.615V29.5403H132.646L132.45 29.6996C132.45 29.0461 132.303 28.5397 132.009 28.1803C131.723 27.8127 131.302 27.6289 130.747 27.6289C130.33 27.6289 129.975 27.7269 129.681 27.923C129.395 28.1108 129.178 28.3763 129.031 28.7194C128.884 29.0543 128.811 29.4464 128.811 29.8957V29.9692C128.811 30.4675 128.888 30.8881 129.044 31.2312C129.207 31.5743 129.448 31.8357 129.766 32.0154C130.085 32.1869 130.465 32.2727 130.906 32.2727C131.257 32.2727 131.596 32.2196 131.923 32.1134C132.258 31.9991 132.572 31.8153 132.866 31.562L133.209 32.2605C132.94 32.5055 132.597 32.7016 132.18 32.8486C131.764 32.9956 131.339 33.0691 130.906 33.0691ZM137.349 33.0691C136.745 33.0691 136.287 32.8894 135.977 32.53C135.675 32.1706 135.524 31.656 135.524 30.9862V24.3207H136.516V30.9126C136.516 31.1985 136.553 31.4395 136.626 31.6356C136.708 31.8316 136.826 31.9786 136.982 32.0767C137.137 32.1747 137.329 32.2237 137.558 32.2237C137.656 32.2237 137.749 32.2196 137.839 32.2114C137.937 32.1951 138.027 32.1747 138.109 32.1502L138.084 32.9834C137.954 33.0079 137.827 33.0283 137.705 33.0446C137.59 33.061 137.472 33.0691 137.349 33.0691ZM143.856 32.9589V27.004H144.824V28.3273H144.689C144.86 27.8535 145.138 27.4982 145.522 27.2613C145.914 27.0163 146.363 26.8937 146.87 26.8937C147.344 26.8937 147.736 26.9795 148.046 27.151C148.365 27.3144 148.601 27.5717 148.757 27.923C148.912 28.2742 148.989 28.7153 148.989 29.2463V32.9589H147.997V29.3075C147.997 28.94 147.948 28.6377 147.85 28.4008C147.76 28.1639 147.613 27.9883 147.409 27.874C147.213 27.7596 146.955 27.7024 146.637 27.7024C146.278 27.7024 145.963 27.78 145.693 27.9352C145.424 28.0904 145.216 28.3069 145.069 28.5846C144.922 28.8624 144.848 29.1891 144.848 29.5648V32.9589H143.856ZM154.283 33.0691C153.654 33.0691 153.11 32.9466 152.653 32.7016C152.204 32.4483 151.852 32.093 151.599 31.6356C151.354 31.1781 151.232 30.6308 151.232 29.9937C151.232 29.3729 151.354 28.8338 151.599 28.3763C151.844 27.9107 152.179 27.5472 152.604 27.2858C153.037 27.0244 153.535 26.8937 154.099 26.8937C154.638 26.8937 155.099 27.0122 155.483 27.2491C155.867 27.486 156.161 27.8209 156.366 28.2538C156.578 28.6867 156.684 29.2054 156.684 29.8099V30.1897H151.991V29.5403H156.023L155.826 29.6996C155.826 29.0461 155.679 28.5397 155.385 28.1803C155.099 27.8127 154.679 27.6289 154.123 27.6289C153.707 27.6289 153.351 27.7269 153.057 27.923C152.771 28.1108 152.555 28.3763 152.408 28.7194C152.261 29.0543 152.187 29.4464 152.187 29.8957V29.9692C152.187 30.4675 152.265 30.8881 152.42 31.2312C152.584 31.5743 152.825 31.8357 153.143 32.0154C153.462 32.1869 153.842 32.2727 154.283 32.2727C154.634 32.2727 154.973 32.2196 155.3 32.1134C155.635 31.9991 155.949 31.8153 156.243 31.562L156.586 32.2605C156.317 32.5055 155.973 32.7016 155.557 32.8486C155.14 32.9956 154.716 33.0691 154.283 33.0691ZM161.29 33.0691C160.587 33.0691 160.06 32.8813 159.709 32.5055C159.358 32.1298 159.182 31.5947 159.182 30.9004V27.7759H158.018V27.004H159.182V25.1783H160.175V27.004H162.061V27.7759H160.175V30.8024C160.175 31.268 160.273 31.6233 160.469 31.8684C160.665 32.1053 160.983 32.2237 161.424 32.2237C161.555 32.2237 161.686 32.2074 161.816 32.1747C161.947 32.142 162.066 32.1093 162.172 32.0767L162.343 32.8363C162.237 32.8935 162.082 32.9466 161.878 32.9956C161.673 33.0446 161.477 33.0691 161.29 33.0691ZM165.616 32.9589L163.398 27.004H164.44L166.265 32.2237H165.971L167.858 27.004H168.704L170.554 32.2237H170.272L172.122 27.004H173.115L170.885 32.9589H169.941L167.993 27.6044H168.52L166.572 32.9589H165.616ZM177.509 33.0691C176.929 33.0691 176.427 32.9425 176.002 32.6893C175.577 32.4361 175.246 32.0807 175.009 31.6233C174.781 31.1577 174.666 30.6104 174.666 29.9814C174.666 29.3525 174.781 28.8093 175.009 28.3518C175.246 27.8862 175.577 27.5268 176.002 27.2736C176.427 27.0203 176.929 26.8937 177.509 26.8937C178.089 26.8937 178.591 27.0203 179.016 27.2736C179.441 27.5268 179.767 27.8862 179.996 28.3518C180.233 28.8093 180.351 29.3525 180.351 29.9814C180.351 30.6104 180.233 31.1577 179.996 31.6233C179.767 32.0807 179.441 32.4361 179.016 32.6893C178.591 32.9425 178.089 33.0691 177.509 33.0691ZM177.509 32.2727C178.072 32.2727 178.518 32.0767 178.844 31.6846C179.179 31.2843 179.347 30.7125 179.347 29.9692C179.347 29.234 179.179 28.6704 178.844 28.2783C178.518 27.8862 178.072 27.6902 177.509 27.6902C176.953 27.6902 176.508 27.8862 176.173 28.2783C175.838 28.6704 175.671 29.234 175.671 29.9692C175.671 30.7125 175.838 31.2843 176.173 31.6846C176.508 32.0767 176.953 32.2727 177.509 32.2727ZM182.622 32.9589V27.004H183.59V28.4131H183.467C183.606 27.9311 183.847 27.5676 184.19 27.3226C184.533 27.0694 184.987 26.9223 185.55 26.8815L185.906 26.8447L185.979 27.7024L185.354 27.7759C184.799 27.8249 184.37 28.0047 184.068 28.3151C183.774 28.6173 183.627 29.0339 183.627 29.5648V32.9589H182.622ZM187.793 32.9589V24.3207H188.786V29.6506H188.81L191.567 27.004H192.829L189.557 30.1407V29.6016L193.086 32.9589H191.824L188.81 30.1652H188.786V32.9589H187.793Z" fill="white"/>
<defs>
<clipPath id="clip0_88_939">
<rect width="200.5" height="14.7033" fill="white" transform="translate(0 1.80005)"/>
</clipPath>
</defs>
</svg>
